<svg version="1.1" height="938" width="1280" viewBox="0.0 0.0 1280.0 938.0" fill="none" stroke="none" stroke-linecap="square" stroke-miterlimit="10" xmlns:xlink="http://www.w3.org/1999/xlink" xmlns="http://www.w3.org/2000/svg"><clipPath id="p.0"><path d="m0 0l1280.0 0l0 938.0l-1280.0 0l0 -938.0z" clip-rule="nonzero"/></clipPath><g clip-path="url(#p.0)"><path fill="#000000" fill-opacity="0.0" d="m0 0l1280.0 0l0 938.0l-1280.0 0z" fill-rule="evenodd"/><path fill="#0f0f0f" d="m1049.1549 595.3963l2.0734863 -8.7821045l-9.19165 -29.430481l8.296631 -10.372681l22.196777 -7.8320312l17.939697 -21.173218l21.748047 -8.047241l14.12854 2.9658813l-5.6088867 9.94751l18.388428 10.37793l7.7165527 -25.018372l7.8240967 14.16272l4.6378174 15.301819l9.866211 6.349121l5.4382324 8.640381l9.590576 10.097168l-2.5249023 24.989502l-10.934448 22.330688l-10.519653 3.9212646l-9.59314 -0.25195312l-14.643066 -3.6693115l-7.398926 -19.265076l-6.501343 8.044617l-8.293945 -11.22052l-18.695557 -1.6561279l-15.902832 7.5721436l-19.183716 4.795288z" fill-rule="evenodd"/><path fill="#0f0f0f" d="m1153.9679 623.9322l7.8966064 13.984253l6.54187 -13.984253z" fill-rule="evenodd"/><path fill="#0f0f0f" d="m1255.5822 596.93634l13.536011 15.984009l5.4144287 1.1117554l-10.60144 13.762817l-21.20752 23.309448l-9.926392 -5.328003l21.432495 -21.312012l7.8966064 -11.320251z" fill-rule="evenodd"/><path fill="#0f0f0f" d="m1128.6641 475.45932l27.265015 8.535431l18.304565 26.984253l-20.979004 -12.212585l-7.4436035 6.6614075l-15.341187 -15.094482l-19.178467 -7.105011l-2.7060547 -12.209961l11.75061 10.451447z" fill-rule="evenodd"/><path fill="#0f0f0f" d="m979.47577 449.85254l29.779236 41.514587l7.67157 0l-1.1297607 -11.765411l-28.424438 -28.63977z" fill-rule="evenodd"/><path fill="#0f0f0f" d="m1029.2803 463.6791l13.08606 -3.9948425l13.985962 -14.208008l7.8966064 7.104004l-6.3167725 5.328003l4.511963 9.768005l-12.408569 19.757416l-18.273071 -5.773163z" fill-rule="evenodd"/><path fill="#0f0f0f" d="m1011.26245 464.7533l-3.5327759 -13.629944l-11.863525 -9.845123l-0.052490234 -14.635193l18.047241 17.094482l14.438293 -10.879242l-0.123291016 -15.5590515l-10.097168 -12.874023l5.2598267 -10.637787l11.955383 1.9973755l22.78479 -10.706055l15.1154785 -23.089233l-4.963257 -17.312347l-4.963257 -4.4409485l11.278198 -10.212585l-16.241455 -5.351715l14.6640625 -10.435699l-0.677124 7.548584l7.6691895 -3.1076355l6.5460205 1.5538025l-2.7087402 6.6588135l6.0892334 14.653534l11.280884 -3.9973755l-7.4436035 -18.868774l15.567017 -14.897614l6.5406494 1.9973755l24.590576 -28.8609l0.90283203 -19.585297l-5.640381 -5.9921417l-14.6640625 -2.2204742l24.475098 -18.947495l42.461914 -0.39370728l12.902832 -15.845139l9.816284 7.010498l14.385864 -4.291336l-29.818848 23.338577l-2.0314941 8.658798l4.2886963 20.425186l18.047241 -20.425186l3.3831787 -15.317596l2.6273193 -7.2834625l24.989502 -2.7769012l23.979004 -11.359573l8.834595 0.5065613l-10.572144 -15.2729645l11.055054 0.44355774l0.41479492 -4.9160004l0.53271484 -6.309723l-0.72961426 -5.0498657l-0.9815674 -7.8241425l-11.105103 -4.7978973l-21.960571 -0.25196838l0.7558594 8.330704l-9.086548 -6.3097076l-29.131226 -1.0892487l-4.963257 -7.1049805l-21.774292 -1.1469879l-10.349121 -7.3202057l-33.824097 -3.5328064l-0.3779297 8.645676l-27.525024 -0.22047424l-5.1862793 6.438324l-6.5406494 -9.564316l-4.7979736 -11.608917l-42.154785 -0.2545929l-24.483032 -3.7847748l18.677246 -9.593185l-4.291382 -6.0577393l-28.774292 -9.593178l-19.438293 9.845146l-44.677185 9.086609l1.2624512 8.834656l-23.223083 -0.25196838l1.3937378 10.706039l5.866089 5.9921265l-14.664001 -6.658798l-17.370117 4.6614227l1.7191772 12.813644l2.7769165 15.902878l-14.640442 6.309723l9.013123 -12.603683l-1.440918 -29.296585l-12.367493 -1.2624664l-8.834595 12.619415l5.9501343 15.942261l-33.839905 -10.656158l5.86615 8.212585l-30.005249 1.9973755l-18.099792 9.32547l-5.6377563 -8.879272l-5.640442 0.887146l-13.989502 16.65091l-16.241455 6.881897l-9.524963 -15.343826l23.288757 4.6876526l7.2178345 -5.9921265l-7.2178345 -5.994751l-39.05249 -18.559052l-22.664062 5.238846l-23.236206 13.54068l-15.3255005 20.262466l-22.719116 14.91864l6.060364 22.215225l14.839905 -9.443573l8.346436 19.314957l11.278198 -4.440933l7.774292 -31.54332l13.658813 -17.963242l12.183716 3.3307037l-14.666687 14.650909l4.220459 13.86615l17.88977 -4.3202057l8.346497 4.440933l-20.75592 2.6640472l-0.67718506 11.989502l-9.472412 -2.443573l-2.2572632 15.317596l-11.732239 -1.5538177l-13.635193 4.490814l-13.309692 -4.664032l-0.45147705 -14.207352l-6.768982 9.325455l3.3858032 11.320221l-13.083984 0.2230835l-10.380615 11.322845l-23.236206 13.32019l10.603699 8.656189l-1.8057861 14.43045l-23.236206 -1.11026l-1.5774536 26.863525l10.829407 4.2152405l20.979004 -9.989502l-1.5800781 -7.769043l12.511841 -9.167969l10.049866 -3.4855652l11.503967 -6.217865l26.847717 25.753296l1.1286621 -9.769043l-11.506592 -7.102356l-5.8635254 -13.099731l9.246704 1.5538025l16.018372 15.097107l10.829407 22.64566l2.0288696 -10.21521l-0.677124 -8.212585l13.989502 0l6.317566 -3.0341492l-4.0629883 -5.328064l12.183716 -17.981628l11.236206 11.094482l10.871399 -4.4356995l16.24408 12.209991l-2.4829102 6.4382935l-12.40686 -0.44354248l-14.666626 -3.9973755l-23.007874 8.438293l0.677124 11.543335l11.278259 5.107605l21.207336 -2.887146l-0.22833252 11.099731l-6.5407104 14.874023l-17.824158 0l-29.776855 -8.435699l-6.317627 10.433075l-32.485535 -14.874023l0.45141602 -12.43045l-25.944885 0l-19.175842 7.5485535l-11.955383 -3.776886l-13.989502 19.314972l0 7.598419l-13.275574 9.427826l-11.992126 22.54068l4.419922 6.740143l-4.543274 15.398956l12.622009 20.69815l20.950134 16.910767l20.950134 -4.2886963l23.477722 -4.181122l17.16272 8.078735l-2.0183716 19.94226l10.34906 12.1154785l6.816284 23.475067l-7.574768 20.950165l6.56427 13.37793l3.532837 7.0682373l2.2729492 15.146973l11.107605 19.939636l0 8.834656l10.34906 1.2624512l18.931763 -1.2624512l20.446228 -20.782166l1.2598267 -12.031494l11.107605 -7.0682373l-4.543274 -14.136475l21.708618 -16.154846l-3.5354004 -26.251984l0.25457764 -16.658783l28.522278 -24.792664l12.370117 -31.049866l-28.27295 0.7585449l-17.417358 -20.952759l-10.601013 -24.230988l-9.120789 -16.753265l8.346497 3.994751l14.438293 23.75589l12.335999 14.91864l4.0393677 14.385834l29.026245 -9.338593l29.02887 -21.708649l-14.16272 -14.078735l-9.08667 5.5538025l-8.834595 -1.2624817l-12.089294 -19.241455l8.078796 -5.299225l6.532776 10.404205l8.834656 5.5538025l11.611572 2.0183716l19.270325 2.5800476l13.293945 -0.055114746l10.433105 8.637787l2.5249023 7.068268l7.5039673 5.6351624l17.51178 42.073486l8.834656 -9.341217l0.72442627 -11.643036l6.595764 -11.32547l17.811035 -15.454041l14.640442 -5.4986877l8.834656 10.603668l4.2335815 10.131226l-1.3543701 8.21521l10.152283 -3.551178l5.414673 23.750671l1.8609009 8.404205l6.3096924 8.834625l3.78479 7.320221l3.7874146 6.309723z" fill-rule="evenodd"/><path fill="#0f0f0f" d="m844.74805 162.88452l-7.8241577 -10.853027l17.249329 -19.601044l30.963257 -8.669296l-7.839905 -4.4278183l-37.0 12.763771l-16.75061 22.963257l7.9553833 6.897644z" fill-rule="evenodd"/><path fill="#0f0f0f" d="m1144.5696 259.42258l1.5878906 35.083984l7.220459 -18.202087l-4.2834473 -20.868774z" fill-rule="evenodd"/><path fill="#0f0f0f" d="m1143.4016 295.45145l14.099731 8.212585l-16.212646 8.514435l-3.4146729 -4.8503723z" fill-rule="evenodd"/><path fill="#0f0f0f" d="m1138.0079 312.68503l-2.4672852 13.853027l-8.640381 4.1522217l-4.543335 5.805786l-11.748047 2.2493286l-9.926514 8.7716675l2.9344482 7.438324l16.467163 -11.391083l17.595825 -5.0393677l7.3936768 -18.2677z" fill-rule="evenodd"/><path fill="#0f0f0f" d="m793.19684 550.35956l4.850403 -21.979004l9.475098 -3.2178345l7.3306885 -12.540649l3.9501343 12.763733l-11.834656 33.29663l-8.328064 3.2834473z" fill-rule="evenodd"/><path fill="#0f0f0f" d="m555.1916 191.43832l14.136475 15.648285l23.847778 -10.6666565l-9.926514 -8.548569z" fill-rule="evenodd"/><path fill="#0f0f0f" d="m605.584 252.93147l13.536011 -5.2161255l-1.579834 13.541428l-12.181213 4.1066895z" fill-rule="evenodd"/><path fill="#0f0f0f" d="m621.71704 233.92299l7.8966064 -0.554718l16.354492 29.525436l-3.9482422 8.103851l-19.061768 1.4427185l6.7668457 -14.762695l-10.603821 -15.429306z" fill-rule="evenodd"/><path fill="#0f0f0f" d="m677.9816 99.13648l30.952759 -8.107613l29.375305 4.82415l-21.931763 6.9396286l11.7323 9.325462l-8.123352 2.7742767l-8.233582 -9.435692l-13.829407 15.640419l-14.257202 -12.419952z" fill-rule="evenodd"/><path fill="#0f0f0f" d="m971.4934 88.41732l10.149658 -3.275589l13.763733 11.433075l-2.317566 8.506561l-16.913391 -2.0183716l-12.1154785 -10.097115l7.994751 -4.438324" fill-rule="evenodd"/><path fill="#0f0f0f" d="m1002.45667 99.52756l13.377991 7.82415l-21.690308 4.3936996z" fill-rule="evenodd"/><path fill="#0f0f0f" d="m1132.6122 125.211006l2.0297852 0.5547104l21.093872 3.1091614l-1.579834 3.8852997l-21.543823 2.4402466l-5.5281982 -6.2160034z" fill-rule="evenodd"/><path fill="#0f0f0f" d="m419.13647 80.70079l89.7218 -15.5301895l43.154846 2.614174l13.826782 6.687668l-2.9632568 10.611549l34.078735 -3.787407l-22.913391 18.545937l-3.338562 17.748032l-3.6903076 19.15223l-10.194214 8.362198l9.488159 15.16011l-6.328064 6.228348l-30.695557 11.532806l-14.225708 11.643051l-22.858276 11.808395l-8.582672 24.989502l-7.824127 -6.561676l-9.089264 -1.010498l-11.356934 -15.144363l-6.3123474 -21.485565l-2.0183716 -17.162735l2.5879211 -10.372696l-19.685028 -25.367462l-18.280853 -6.22834l-16.900269 2.2519684l-13.632538 -16.406822l27.262482 -8.328087l-2.5879211 -5.191597l-9.141754 -2.9973755l14.062988 -6.2257233l7.031494 0.6902847z" fill-rule="evenodd"/><path fill="#0f0f0f" d="m924.52246 435.70007l0.4500122 11.989166l6.9942017 -4.6637573z" fill-rule="evenodd"/><path fill="#0f0f0f" d="m1072.1943 377.331l-4.7370605 11.986816l4.7370605 1.776001z" fill-rule="evenodd"/><path fill="#0f0f0f" d="m1029.0526 397.79355l5.6394043 -0.22143555l-4.512085 7.7705994l-4.511963 -3.330597z" fill-rule="evenodd"/><path fill="#0f0f0f" d="m1068.4673 403.6675l0 21.757172l8.34668 -20.202576z" fill-rule="evenodd"/><path fill="#0f0f0f" d="m340.1268 388.02917l12.747284 -3.2210388l22.673676 11.655884l-11.056152 1.442688l-12.633606 -8.880005l-12.858612 1.6664734z" fill-rule="evenodd"/><path fill="#0f0f0f" d="m379.80518 397.9067l9.023987 0.554718l8.007935 4.9947205l-20.530212 1.5545654l6.4305115 -2.1092834z" fill-rule="evenodd"/><path fill="#0f0f0f" d="m348.91602 71.42782l36.997375 -1.8845139l33.78476 3.5931778l-36.2677 25.84777l-20.07611 1.6482925l9.249329 5.8871384l-4.5118103 4.9448853l-11.055115 4.9501266l5.6404114 4.9448853l-43.99475 2.354332l9.026245 -8.24147l-2.2545776 -8.716537l-12.409454 4.238846l-15.341217 -16.015747l7.443573 -11.776901l32.71393 -7.299217l6.0892334 3.7690277z" fill-rule="evenodd"/><path fill="#0f0f0f" d="m315.56635 124.363914l4.9620056 6.6588364l35.193604 0.6665802l0.45239258 6.6588287l-42.640167 0l-3.3822327 -12.653412z" fill-rule="evenodd"/><path fill="#0f0f0f" d="m328.6719 143.5853l35.984253 1.1102448l10.942261 13.097107l8.230988 0l18.388428 12.209976l-9.249329 2.5538025l28.65091 13.54068l-8.708649 10.6141815l-9.086609 -8.078735l-7.0682373 1.7664032l14.711273 13.349075l-8.905518 10.8845215l-17.490814 -8.553818l-23.905518 -7.3490753l17.70343 -5.5275574l-2.7086792 -4.551178l6.881897 -5.5485687l-13.800537 -8.3517l-10.338562 -11.409454l0.22570801 5.4409485l-30.118103 -3.4409485l-8.120728 -4.4383087l-1.1286011 -8.992126l5.5590515 -6.4409485" fill-rule="evenodd"/><path fill="#0f0f0f" d="m365.65927 180.91724l0.33633423 4.6614075l7.785248 -2.8854065l-2.0321655 -5.773163z" fill-rule="evenodd"/><path fill="#0f0f0f" d="m671.4331 307.56793l-1.0136719 15.429291l5.4143677 -1.997406l-2.0321655 -15.541168z" fill-rule="evenodd"/><path fill="#0f0f0f" d="m1018.49896 489.52182l28.651794 8.1015625l-0.67736816 3.552002l-30.231628 -7.7682495z" fill-rule="evenodd"/><path fill="#0f0f0f" d="m202.47293 125.60966l19.964127 -8.989548l20.416504 13.32l8.010269 -7.991997l13.761017 8.3252945l-5.866791 4.5495453l-9.926392 -1.3308411l-12.067535 5.6612854z" fill-rule="evenodd"/><path fill="#0f0f0f" d="m270.3293 123.16748l23.348694 0.8880005l-0.9024048 10.101288l-8.571594 0.33329773z" fill-rule="evenodd"/><path fill="#0f0f0f" d="m199.71423 137.94212l20.700485 1.6548004l22.502197 11.188904l21.645065 -6.298935l4.3797913 2.8764954l-1.2414856 14.16507l12.73764 7.609268l-4.209015 5.3569183l-16.037415 -2.3232117l-24.78215 3.369873l-13.348358 -8.97084l-6.8105316 -13.439377l-12.266251 6.192032l-9.377914 -7.0052643z" fill-rule="evenodd"/><path fill="#0f0f0f" d="m408.00262 685.8478l-12.62204 -8.834656l-1.7664185 -8.582703l5.0498657 -6.5616455l8.580048 -10.603699l-6.813629 -7.3201904l6.3096924 -5.805786l5.805786 -8.076111l-6.309723 -7.8241577l12.619446 0l9.089233 -10.406799l10.349091 -6.0577393l6.3096924 -9.845154l23.21524 -15.94751l0 -8.435669l25.493439 -12.433105l6.7690125 -19.805786l0.67718506 -16.650879l14.832031 -22.506592l-0.7585449 -12.1154785l-12.619446 -6.816284l-12.873993 -2.0183716l-12.874023 -6.0577393l-17.921265 -3.787384l4.0393677 -7.0682373l-12.62204 -14.136505l-13.27298 1.223114l-13.763763 -14.207367l-30.905518 -6.6614075l-5.6404114 -4.2178345l-13.761169 7.1049805l-6.3149414 11.543304l-5.4147034 -7.598419l-9.700806 3.107605l-4.7375183 -2.8845215l-2.0314941 3.7716675l9.249329 3.1102295l4.5118103 -4.6614075l4.737549 5.771637l2.9317627 5.3280945l-1.1260071 10.212585l-10.829376 13.54068l-1.5800476 19.091858l18.330688 28.141754l20.952759 16.4068l-5.2178345 53.031494l-7.6010437 18.742798l-0.06826782 15.0026245l-4.7270203 23.868774l3.5328064 2.5249023l-6.0577393 10.097168l4.3175964 15.950073l3.9579773 6.5722046l5.805786 4.036743l7.572174 4.0393677z" fill-rule="evenodd"/><path fill="#0f0f0f" d="m54.217846 253.5328l24.490818 -17.21785l3.0236206 -5.7532806l-6.5616837 0.75852966l-11.359577 -1.2624664l-13.125984 -12.1154785l4.56168 -10.514435l12.632545 -6.9501343l-20.304462 -1.5223083l0.45406723 -9.338593l22.107613 -1.0866089l-22.56168 -11.7270355l15.341209 -8.472443l21.593174 -8.475067l45.637802 9.128616l25.29396 5.259842l29.750656 -9.1706085l20.527557 5.4304504l27.29921 7.383209l-3.8346405 4.128601l16.876633 0.30708313l8.3280945 1.5144348l0.75852966 -7.0682373l8.330704 -0.50393677l31.131226 6.401581l4.0577393 5.2126007l6.7113037 -14.139114l-7.8241577 -11.611542l5.047241 -6.0577545l8.078735 4.5433044l1.9763794 9.021011l4.737549 8.687653l6.091858 -5.648285l4.5118103 6.950119l1.5800476 6.734909l8.120728 -16.291336l13.084015 4.7795258l0 11.076126l-8.123383 3.6929016l-9.246704 1.7375336l-10.603668 13.467194l-5.86615 3.0419922l-10.829407 4.9921265l-3.3832092 15.858276l5.640442 1.0866089l2.4803162 9.989502l7.669281 -3.2572174l19.404205 10.858276l9.023621 -0.43307495l0.90289307 11.51181l9.023621 8.687653l3.8346252 -6.734894l-2.9317322 -11.076126l9.472412 -6.7322845l0.67718506 -8.036743l-6.54068 -5.2126007l4.7375183 -5.648285l-4.2886963 -6.296585l1.5800476 -6.9501343l10.603668 1.5170593l4.288727 -1.9527588l13.08136 8.254593l2.7086487 13.682419l11.280853 -2.1706085l3.6089172 -8.036743l10.829407 17.808395l15.590546 9.1706085l7.6719055 9.559067l-2.2572021 4.994751l-6.5118103 5.1863403l-5.5538025 4.2913513l-19.4357 1.2624512l2.3989258 3.3779602l-2.3989258 6.9711304l2.1732178 4.75589l8.120728 2.3910828l4.288727 -5.4304504l2.0787354 8.658813l-7.320221 2.4960632l-12.118103 7.34906l-1.1417236 -7.209961l8.346436 -4.779541l-3.3831787 -3.690277l-0.5380554 4.5747986l-8.582703 5.047241l-13.438293 4.3018494l0.56430054 8.065613l-9.59317 3.2834473l-6.989502 11.241486l-5.86615 -3.0419922l4.5275574 16.283447l-10.167969 3.9160156l-7.503937 8.202118l-3.3228455 6.13385l5.637787 12.813629l-1.8083801 8.060394l-7.5722046 -8.834656l0.58532715 -7.695526l-4.7401733 -4.779541l-4.5118103 1.0866089l-3.8346558 -2.6062927l-13.986877 0.43307495l-2.0314941 3.9107666l-13.083984 -0.8687744l-9.475067 6.7322693l-1.3543091 9.774292l-2.2572327 13.10498l8.123352 14.335968l16.018372 0.43307495l4.060364 -9.556427l11.503937 -2.1706238l-6.766388 22.152252l15.566925 -0.65093994l4.2861023 3.908142l-2.2572327 11.51181l4.2861023 8.687653l-1.5800476 2.6063232l-8.795288 -4.7769165l-7.897644 -11.51181l-14.8897705 -4.994751l-8.572174 -8.036743l-7.443573 3.908142l-31.811005 -15.853027l0.45144653 -10.427826l-22.750671 -22.666656l-4.5433044 -11.10498l-5.0498657 -2.5249329l-1.0446167 4.370056l19.627289 29.105011l-6.7690277 -4.3438416l-15.341202 -22.587921l-5.637802 -11.514435l-2.9501343 -2.3490906l-7.572174 -2.020996l-13.1653595 -22.175842l-2.7086487 -17.375336l2.9317474 -14.989502l-7.0 -8.141724l-10.207352 -5.9763794l3.897644 -8.275604l-14.136475 -14.776901l-6.1968536 -12.286087l-14.753281 -4.627304l-12.144363 -7.6010437l-13.881889 -0.75590515l-10.097115 -5.5538025l-3.2834625 4.795273l-11.104988 5.301834l-1.2834625 -10.784775l-7.2992096 9.774277l1.5144348 3.0288696l-8.834648 7.0682526l-10.349083 8.582672z" fill-rule="evenodd"/><path fill="#0f0f0f" d="m429.80054 284.47244l9.530182 -16.039368l12.238831 12.598419l-0.34646606 10.448822z" fill-rule="evenodd"/><path fill="#0f0f0f" d="m1065.7185 472.16348l0 19.202728l11.503906 -7.104004l7.782837 -21.645294z" fill-rule="evenodd"/><path fill="#0f0f0f" d="m1076.813 446.98096l9.024048 8.313629l4.850708 -10.101288l-6.880493 -17.095734l-10.603882 4.1090393z" fill-rule="evenodd"/><path fill="#0f0f0f" d="m331.01517 203.38759l6.655487 4.2185974l15.565796 -5.549423l-18.047974 -10.322708z" fill-rule="evenodd"/><path fill="#0f0f0f" d="m288.152 172.03265l12.858612 0.99754333l-9.812714 -7.104004z" fill-rule="evenodd"/><path fill="#0f0f0f" d="m274.84396 148.65659l14.438416 10.986969l8.460297 -7.7682495l-5.6394043 -11.101166z" fill-rule="evenodd"/><path fill="#0f0f0f" d="m299.7844 143.439l3.6096191 10.213165l14.324707 -12.877167z" fill-rule="evenodd"/><path fill="#0f0f0f" d="m288.15137 107.398186l5.30307 6.770714l5.5257263 -4.88517z" fill-rule="evenodd"/><path fill="#0f0f0f" d="m263.11014 105.11969l23.123718 9.879875l-3.7209167 -7.437294l-9.476379 -3.7734146z" fill-rule="evenodd"/><path fill="#0f0f0f" d="m1170.1006 488.63504l12.294922 -6.2160034l-2.932251 7.104004z" fill-rule="evenodd"/><path fill="#0f0f0f" d="m235.56955 112.73753l7.320221 3.280838l6.816269 -4.5433044l-0.50393677 -5.299217l-7.826767 -0.2545929z" fill-rule="evenodd"/><path fill="#0f0f0f" d="m299.68503 130.15486l4.0393677 -1.2624664l1.7664185 7.572174l-8.330719 -1.7664032z" fill-rule="evenodd"/><path fill="#0f0f0f" d="m296.65616 119.5538l19.94226 2.0183792l-7.8267517 3.7873993l-16.154877 -5.0498734z" fill-rule="evenodd"/></g></svg>