<svg version="1.1" viewBox="0.0 0.0 1427.3622047244094 1070.8057742782153" fill="none" stroke="none" stroke-linecap="square" stroke-miterlimit="10" xmlns:xlink="http://www.w3.org/1999/xlink" xmlns="http://www.w3.org/2000/svg"><clipPath id="p.0"><path d="m0 0l1427.3622 0l0 1070.8058l-1427.3622 0l0 -1070.8058z" clip-rule="nonzero"/></clipPath><g clip-path="url(#p.0)"><path fill="#000000" fill-opacity="0.0" d="m0 0l1427.3622 0l0 1070.8058l-1427.3622 0z" fill-rule="evenodd"/><path fill="#434343" d="m1123.8661 678.5171l3.2493896 -11.24939l-10.24939 -34.75061l9.24939 -12.24939l24.75061 -9.249329l20.0 -25.0l24.24939 -9.501282l15.75061 3.5012817l-6.251953 11.748047l20.501343 12.251953l6.7506104 -30.501282l5.748047 16.249329l10.0 19.501282l11.0 7.4987183l4.0 11.251953l10.750732 9.249329l-1.2493896 32.49872l-11.75061 25.0l-14.498779 5.251953l-10.251953 0.49871826l-14.0 -5.7506714l-8.249268 -22.748047l-7.2493896 9.498718l-9.24939 -13.24939l-17.50122 -2.2493286l-21.49878 12.498718l-26.50122 4.5012817z" fill-rule="evenodd"/><path fill="#434343" d="m1240.2257 711.1575l8.75061 15.748047l7.2493896 -15.748047z" fill-rule="evenodd"/><path fill="#434343" d="m1353.2257 679.9055l15.0 18.0l6.0 1.2519531l-11.748047 15.498718l-23.501343 26.249329l-11.0 -6.0l23.750732 -24.0l8.75061 -12.748047z" fill-rule="evenodd"/><path fill="#434343" d="m1212.4777 532.7402l34.0 13.498657l16.498657 26.501343l-23.249268 -13.750671l-8.24939 7.5012817l-17.0 -17.0l-21.251953 -8.0l-3.0 -13.75061l14.75061 12.75061z" fill-rule="evenodd"/><path fill="#434343" d="m1046.6431 503.18372l33.0 46.75067l8.501343 0l-1.2520752 -13.249329l-31.498657 -32.251984z" fill-rule="evenodd"/><path fill="#434343" d="m1101.8923 518.1837l14.501343 -4.498657l15.498657 -16.00003l8.750732 8.0l-7.0 6.0l5.0 11.0000305l-13.750732 22.249329l-20.249268 -6.501343z" fill-rule="evenodd"/><path fill="#434343" d="m1080.8923 518.6562l-4.0 -15.498718l-15.249268 -17.75064l4.0 -17.501312l20.0 19.251953l16.0 -12.251953l-1.7507324 -14.0l-12.498657 -16.748047l8.750732 -13.251953l13.249268 2.2519531l25.24939 -12.057739l16.75061 -26.0l-5.501343 -19.498688l-5.498657 -5.0l12.498657 -11.501312l-18.0 -6.026245l16.252075 -11.750641l-0.7507324 8.501312l8.498657 -3.5013123l7.252075 1.7506409l-3.0 7.4986877l6.747925 16.501312l12.501343 -4.5013123l-8.249268 -21.249329l17.249268 -16.776917l7.2493896 2.2493591l27.249268 -32.501312l1.0 -22.055145l-6.2492676 -6.7480164l-16.24939 -2.5013123l29.498657 -25.249344l43.501343 0l14.498657 -15.779526l29.750732 -3.4986877l-8.0 10.750656l-27.0 23.498672l-2.2493896 9.750671l4.7507324 23.0l20.0 -23.0l3.7479248 -17.249344l4.252075 -11.501312l24.0 -1.2493439l28.0 -14.750656l10.249268 1.0l-11.249268 -14.249344l12.249268 0.49868774l6.2493896 -9.748032l21.501343 13.498688l3.7479248 -7.2782135l5.252075 -2.0l-1.0 -6.0l-49.252075 -20.748032l-22.498657 -1.5013123l-1.0 9.501312l-42.0 -7.5013123l-5.501343 -8.0l-28.747925 0.7506561l-8.501343 -8.501312l-32.0 -4.275589l-4.2493896 8.249344l-30.501343 -0.24934387l-5.747925 7.249344l-10.252075 -12.0l-3.0 -9.249344l-57.249268 -0.7506561l-30.0 5.4986877l33.249268 -18.0l-5.747925 -8.026245l-31.252075 -9.000008l-17.94226 8.498695l-50.251892 11.750656l1.2519531 8.750656l-27.0 1.0l2.0 7.7480316l6.498657 6.750656l-16.249329 -7.4986877l-19.249329 5.249344l1.2493286 19.750656l0.7506714 13.249344l-19.501343 2.2493439l16.24939 -10.0l-2.7480469 -29.750656l-13.0 -1.2493439l-8.501343 14.501312l5.7506714 14.249344l-37.50128 -12.0l6.5012817 9.249344l-33.24933 2.2493439l-20.05774 10.501312l-6.2493286 -10.0l-6.2493896 1.0l-15.501282 18.750656l-18.0 7.7480316l-12.249329 -18.498688l27.501282 6.4986877l8.0 -6.7480316l-8.0 -6.750656l-40.251953 -17.249344l-28.1391 2.2493439l-25.748047 15.249344l-18.750671 22.249344l-20.249329 15.251968l0.49871826 21.0l19.501282 -4.5013123l9.249329 21.75064l12.498718 -5.0l5.0 -36.501297l18.750671 -19.249344l13.501282 3.7506561l-16.251953 16.498688l2.2519531 13.251968l22.249329 -2.5013123l9.24939 5.0l-23.0 3.0l-0.7506714 13.501312l-10.498718 -2.7506561l-2.5012817 17.249344l-13.0 -1.7506714l-15.1102295 5.0577393l-14.750671 -5.251953l-0.49871826 -16.0l-7.5012817 10.501312l3.7506714 12.750641l-14.498718 0.24935913l-11.501282 12.750641l-25.750671 15.0l11.750671 9.748047l-2.0 16.251953l-25.750671 -1.2519531l-1.7480469 30.251953l12.0 4.748047l23.249329 -11.249359l-1.7506104 -8.750641l14.0 -15.249359l11.0 1.0l12.75061 -7.0l29.750671 29.0l1.2493286 -11.0l-12.75061 -8.0l-6.4987183 -14.750641l10.249329 1.7506409l17.750671 17.0l12.0 25.501312l2.2493286 -11.501312l-0.75061035 -9.249329l15.501282 0l7.0 -3.417328l-4.5012817 -6.0l13.501282 -20.249329l34.0 -3.2493591l-9.501282 10.748047l18.0 13.750641l-2.7506714 7.249359l-13.748047 -0.49868774l-16.251953 -4.5013123l-25.498718 9.501312l0.7506714 13.0l12.498718 5.750641l23.501282 -3.2519531l-0.25195312 12.501312l-7.2493286 16.75064l-19.750671 0l-33.0 -9.501312l-7.0 11.750671l-36.0 -16.750671l0.50128174 -14.0l-28.75061 0l-21.24939 8.501312l-13.249329 -4.251953l-15.501282 21.75064l0 8.556427l-14.750671 13.498688l-13.249329 22.501312l4.5012817 19.24936l-3.5012817 14.249329l13.249329 20.251984l21.251953 22.0l18.249329 -4.7506714l27.498718 -5.750641l9.501282 10.0l12.750671 -1.0l2.7480469 13.915985l-4.4987183 11.0l13.750671 19.501343l6.2493286 28.0l-8.0 14.0l1.2493896 17.0l9.75061 16.498657l2.7506714 22.501343l10.249329 16.249329l4.4987183 16.501282l31.501282 -5.7506104l22.498718 -25.750671l0.50128174 -11.249329l10.498718 -6.2493896l-2.4987183 -22.251953l23.24939 -16.249329l-7.4987183 -47.49872l31.249329 -34.2782l15.498718 -36.0l-26.0 3.7480469l-20.498718 -26.304474l-15.501282 -34.498688l-8.498718 -20.75064l9.24939 4.4986877l16.0 26.75064l14.249329 26.750671l2.5012817 15.249329l38.0 -18.0l25.498718 -24.249329l-15.249329 -15.055115l-7.2493896 8.249329l-9.75061 -1.2493286l-16.24939 -25.0l10.750671 -5.5013123l11.0 15.501312l9.249329 3.4986877l6.0 -3.2493591l2.2493896 5.249359l36.50128 3.0l10.637817 14.055115l7.2493286 7.5013123l5.7506714 -0.24935913l18.249329 56.0l10.501343 -13.501312l1.2493286 -18.75064l9.249329 -6.748047l19.750671 -23.75064l15.501282 -1.5013123l4.748047 9.0l8.501343 10.0l-1.5013428 9.251953l11.251953 -4.0l6.0 26.748047l-2.2519531 9.750641l8.75061 12.501312l2.7507324 9.498688l8.249268 9.750641z" fill-rule="evenodd"/><path fill="#434343" d="m895.3228 171.86876l-6.7506104 -12.874008l22.498657 -18.874023l32.501343 -11.251968l-6.876648 -3.49868l-41.0 14.375328l-22.0 24.37532l12.251953 9.249344z" fill-rule="evenodd"/><path fill="#434343" d="m1230.2257 275.01837l1.0 40.748047l8.0 -20.498688l-4.748047 -23.501312z" fill-rule="evenodd"/><path fill="#434343" d="m1229.3229 319.14697l15.624634 9.249359l-10.125977 8.0l-11.624634 -3.8740234z" fill-rule="evenodd"/><path fill="#434343" d="m1222.4462 338.5223l-1.123291 16.125977l-12.0 8.624695l-3.1259766 4.873993l-12.501343 0.24935913l-11.0 9.876648l3.2519531 8.375305l14.498657 -12.0l23.24939 -6.5013123l6.6273193 -22.375305z" fill-rule="evenodd"/><path fill="#434343" d="m841.25195 622.61945l5.375366 -24.750671l10.498657 -3.6246948l8.125977 -14.123352l4.375366 14.375305l-12.750671 40.874023l-9.0 3.6246948z" fill-rule="evenodd"/><path fill="#434343" d="m580.15485 207.31496l17.249329 12.249344l20.375366 -10.874008l-11.0 -9.627304z" fill-rule="evenodd"/><path fill="#434343" d="m631.5302 272.3281l15.0 -5.8740234l-1.7506714 15.249329l-13.498718 4.624695z" fill-rule="evenodd"/><path fill="#434343" d="m649.9055 248.07874l8.750671 -0.6246643l18.123352 33.24933l-4.375366 9.126007l-21.123352 1.6246643l7.4987183 -16.624664l-11.750671 -17.375336z" fill-rule="evenodd"/><path fill="#434343" d="m714.1837 103.13386l31.874023 -6.375328l30.624695 3.1259842l-22.375366 10.12336l13.0 10.501312l-9.0 3.1233597l-9.123352 -10.624672l-13.876648 15.62468l-17.249329 -12.000008z" fill-rule="evenodd"/><path fill="#434343" d="m1038.4594 93.00525l11.249268 -3.6876602l15.251953 12.874016l-1.1259766 8.125984l-19.312256 -2.1259842l-13.750732 -6.687668l8.312378 -8.375328" fill-rule="evenodd"/><path fill="#434343" d="m1075.2021 105.94226l11.438232 6.561676l-23.125977 5.375328z" fill-rule="evenodd"/><path fill="#434343" d="m1217.5171 132.71654l2.2492676 0.6246643l23.375366 3.5013123l-1.7506104 4.3753357l-23.874023 2.7480316l-6.1259766 -7.0z" fill-rule="evenodd"/><path fill="#434343" d="m428.1706 85.04462l101.75067 -15.249344l40.0 1.2493439l14.750671 7.249344l-3.5013428 12.750656l38.501343 -4.0l-26.252014 18.750656l-9.498657 13.498688l2.0 26.501312l-16.750671 9.0l16.0 16.498688l-6.7506714 6.750656l-32.747986 12.501312l-27.252014 12.748032l-12.249329 6.750656l-9.0 29.750656l-8.0 -7.5013123l-8.498688 2.2519684l-12.501312 -18.750656l3.0 -36.501312l-4.750641 -14.498688l-5.748047 0.49868774l-21.0 -27.498688l-19.501312 -6.750656l-21.249329 2.0l-17.24936 -19.498688l32.498688 -6.2519684l-0.24932861 -6.249344l-9.750671 -3.2493439l15.0 -6.750656l7.5013123 0.7506561z" fill-rule="evenodd"/><path fill="#434343" d="m986.92126 486.71127l0.49865723 13.501312l7.7506714 -5.251953z" fill-rule="evenodd"/><path fill="#434343" d="m1149.727 414.40683l-5.2493896 13.498688l5.2493896 2.0z" fill-rule="evenodd"/><path fill="#434343" d="m1102.4777 438.65616l6.2493896 -0.24932861l-5.0 8.750641l-5.0 -3.7506409z" fill-rule="evenodd"/><path fill="#434343" d="m1145.4777 446.90552l0 24.501312l9.24939 -22.750671z" fill-rule="evenodd"/><path fill="#434343" d="m337.3622 428.16272l14.125977 -3.6272888l25.125977 13.125977l-12.251953 1.6246948l-14.0 -10.0l-14.249359 1.8766174z" fill-rule="evenodd"/><path fill="#434343" d="m381.61417 439.2861l10.0 0.6246643l8.874023 5.6246643l-22.750671 1.7506714l7.126007 -2.3753357z" fill-rule="evenodd"/><path fill="#434343" d="m348.3937 75.60105l41.0 -2.0l39.24933 6.249344l-42.0 25.0l-22.249329 1.7506561l10.249329 6.249344l-5.0 5.249344l-12.249329 5.2519684l6.2493286 5.2493362l-48.75064 2.4986877l10.0 -8.748024l-2.4986877 -9.251968l-13.750671 4.5013123l-17.0 -17.0l8.249359 -12.501312l36.251953 -7.7480316l6.748047 4.0z" fill-rule="evenodd"/><path fill="#434343" d="m309.00525 128.3517l5.4986877 7.4986877l39.0 0.7506561l0.50131226 7.4986877l-47.251953 0l-3.7480469 -14.249344z" fill-rule="evenodd"/><path fill="#434343" d="m324.66928 150.32808l39.874023 1.2493439l12.125977 14.750656l9.123383 0l20.375305 13.750656l-10.249329 2.8740234l31.75064 15.249344l-10.375305 10.251968l-11.624695 -10.251968l-7.750641 4.0l18.501312 15.876633l-9.750671 9.62468l-19.501312 -7.0l-14.748016 -12.750656l7.8740234 -1.7506561l-3.0 -5.1233673l7.6246643 -6.249344l-7.0 -9.501312l-19.750671 -12.750656l0.25198364 6.125992l-33.375336 -3.8740234l-9.0 -5.0l-1.2519531 -10.125977l11.125977 -9.0" fill-rule="evenodd"/><path fill="#434343" d="m365.65616 191.23097l0.37271118 5.249344l8.627289 -3.2493439l-2.2519531 -6.5013123z" fill-rule="evenodd"/><path fill="#434343" d="m704.50134 333.85565l-1.1234131 17.375305l6.0 -2.2493286l-2.2519531 -17.501312z" fill-rule="evenodd"/><path fill="#434343" d="m799.39105 317.81104l4.1864014 5.2493286l9.687622 -4.750641l-8.312317 -2.8110352z" fill-rule="evenodd"/><path fill="#434343" d="m1089.8635 551.41205l31.75061 9.123413l-0.75061035 4.0l-33.501343 -8.748047z" fill-rule="evenodd"/><path fill="#434343" d="m186.41995 131.91077l22.123352 -10.123367l22.62468 15.0l8.876633 -9.0l15.249344 9.375336l-6.5013123 5.123352l-11.0 -1.4986877l-13.372696 6.3753357z" fill-rule="evenodd"/><path fill="#434343" d="m257.91864 128.53543l25.874023 1.0l-1.0 11.375336l-9.498688 0.37532043z" fill-rule="evenodd"/><path fill="#434343" d="m180.7664 146.02362l23.0 0.7480316l25.498688 11.375336l23.62468 -8.249344l5.0 3.0l-0.6246643 16.0l14.501312 7.874008l-4.3753357 6.2519684l-17.874023 -1.7506561l-27.251968 5.1233673l-15.249344 -9.372711l-8.249344 -14.750656l-13.249344 7.6246796l-10.750656 -7.3753357z" fill-rule="evenodd"/><path fill="#434343" d="m413.78217 784.5722l-17.498688 -16.498718l6.750641 -15.501282l7.249359 -9.0l-6.5013123 -6.0l8.750641 -8.498718l1.7506714 -18.750671l9.249329 2.7506714l0.24935913 -12.249329l18.75064 -0.7506714l3.5013123 -12.0l-5.5013123 -10.501282l15.501312 4.7506104l22.832031 -34.304443l0 -9.501282l28.249329 -14.0l7.501343 -22.304504l0.75061035 -18.750671l16.24939 -18.249329l-2.5013428 -16.251953l-15.498657 -10.249329l-19.501343 -1.2782593l-11.498688 -7.498657l-19.249329 2.0l8.748016 -11.750671l-7.2493286 -14.498688l-20.498688 -4.750641l-15.251984 -16.0l-34.24933 -7.5013123l-6.249359 -4.748047l-15.249329 8.0l-7.0 13.0l-6.0 -8.556427l-10.750671 3.4986877l-5.2493286 -3.2493286l-2.2519836 4.2493286l10.251984 3.5013123l5.0 -5.2493286l5.2493286 6.4986877l3.2493591 6.0l-1.2493591 11.501312l-12.0 15.249329l-1.7506409 21.498718l20.249329 40.556396l23.0 17.750671l-5.4986877 51.582703l0 14.0l-8.501312 24.0l-0.49868774 19.055115l5.249359 -0.49871826l-5.4986877 25.498718l-2.5013123 15.0l4.750641 11.75061l8.750671 5.2493896l4.0 8.501282z" fill-rule="evenodd"/><path fill="#434343" d="m5.671916 274.9344l42.0 -20.501312l3.4986877 -10.249344l-9.750656 2.7506561l-10.000002 -1.0l-13.0 -9.501312l3.2519703 -15.249344l14.0 -8.0l-22.501312 -1.7506561l0.50131226 -10.748032l24.498688 -1.2519684l-25.0 -13.498688l17.0 -9.750656l24.750658 -8.498688l49.750652 9.249344l34.000008 9.249344l27.0 -13.750656l22.748032 6.2519684l30.251968 8.498688l-4.2519684 4.750656l23.0 -0.50131226l8.251968 9.251968l0.24934387 -10.501312l10.249329 -2.0l30.750671 4.5013123l4.4986877 6.0l10.501312 -17.251968l-12.750671 -5.0l2.0 -10.249344l12.249359 1.2493439l3.5013123 10.251968l5.2493286 10.0l6.7506714 -6.5013123l5.0 8.0l1.7506409 7.750656l9.0 -18.750656l14.498688 5.5013123l0 12.748032l-9.0 4.2519684l-10.249329 2.0l-11.750671 15.498688l-6.4986877 3.5013123l-12.0 5.7480316l-3.7506409 18.251968l6.2493286 1.2493439l2.7506714 11.498688l8.498688 -3.7480316l21.501312 12.4986725l10.0 -0.49868774l1.0 13.249359l10.0 10.0l4.2493286 -7.7506714l-3.2493286 -12.750641l10.498688 -7.748047l0.75064087 -9.251953l-7.2493286 -6.0l5.2493286 -6.4986877l-4.750641 -7.249344l1.7506409 -8.0l11.750671 1.7480316l4.750641 -2.2493439l14.498688 9.501312l3.0 15.748032l12.501312 -2.4986877l4.0 -9.249344l12.0 20.498672l17.275604 10.556427l8.501312 11.0l-2.5013123 5.7506714l-11.748047 2.0l-3.7506409 5.2493286l-26.0 0l9.249329 9.0l-5.0 5.0l4.7506714 8.498688l9.0 2.7506714l4.750641 -6.249359l3.4986877 4.4986877l-9.0 5.5013123l-12.498688 4.4986877l-2.5013123 -1.4986877l9.249359 -5.5013123l-3.7480469 -4.2493286l-3.7506409 4.0l-11.0 3.5013123l-10.249359 8.527557l1.4986877 7.4986877l-12.750641 1.7506714l-6.4986877 16.75064l-6.5013123 -3.5013123l3.0 15.0l-9.249359 8.249359l-10.498688 9.251953l-1.5013123 7.249359l6.249359 14.750641l-1.4986877 7.748047l-4.7506714 -4.249359l-3.4986877 -13.249329l-5.251953 -5.5013123l-5.0 1.2519531l-4.249359 -3.0l-15.498688 0.49868774l-2.2519531 4.5013123l-14.498688 -1.0l-10.501312 7.748047l-1.4986877 11.251953l-2.5013123 15.08136l9.0 16.501312l17.75064 0.49868774l4.5013123 -11.0l12.748047 -2.4986877l-7.4986877 25.498688l17.249329 -0.74801636l4.7506714 4.4986877l-2.5013123 13.249329l4.750641 10.0l-1.7506409 3.0l-9.748047 -5.4986877l-8.750641 -13.249329l-16.501312 -5.7506714l-9.498688 -9.249329l-8.249359 4.4986877l-35.251953 -18.24936l0.50131226 -12.0l-25.501312 -29.249329l-5.249344 -13.251984l-6.249344 -1.7480164l0 7.4986877l21.750656 33.501312l-7.5013123 -5.0l-17.0 -26.0l-6.249344 -13.251984l-2.5013123 -5.0l-12.0 -5.4986877l-11.748032 -20.055115l-3.0 -20.0l3.2493439 -17.251953l-5.249344 -12.275604l-13.501312 -10.251953l4.0 -3.2493591l-12.249344 -17.249329l-11.776901 -16.028885l-14.501312 -6.4986877l-14.2493515 -8.501312l-14.0 0l-12.0 -6.0l-6.5013123 6.0l-10.249344 4.0l-0.7506561 -9.0l-11.498684 10.251968l5.7506523 1.0l-15.999996 12.0l-28.0 12.498688z" fill-rule="evenodd"/><path fill="#434343" d="m436.03674 305.85828l10.561676 -18.062988l13.561676 14.188965l-6.4356995 7.1863403z" fill-rule="evenodd"/><path fill="#434343" d="m1141.9895 530.66144l0 21.624634l12.748047 -8.0l8.624634 -24.375305z" fill-rule="evenodd"/><path fill="#434343" d="m1155.1129 492.89764l10.0 9.362213l5.375244 -11.375336l-7.624634 -19.251984l-11.75061 4.6273193z" fill-rule="evenodd"/><path fill="#434343" d="m327.2651 216.53543l7.375305 4.750656l17.24936 -6.249344l-20.0 -11.624664z" fill-rule="evenodd"/><path fill="#434343" d="m278.6404 184.41208l14.249359 1.123352l-10.874023 -8.0z" fill-rule="evenodd"/><path fill="#434343" d="m265.01575 157.02362l16.0 12.372711l9.375336 -8.748032l-6.249359 -12.501312z" fill-rule="evenodd"/><path fill="#434343" d="m293.01575 152.14699l4.0 11.501312l15.874023 -14.501312z" fill-rule="evenodd"/><path fill="#434343" d="m282.6404 111.6063l5.876648 7.624672l6.123352 -5.5013123z" fill-rule="evenodd"/><path fill="#434343" d="m252.01575 108.480316l25.624664 11.125984l-4.123352 -8.375328l-10.501312 -4.249344z" fill-rule="evenodd"/><path fill="#434343" d="m1257.0997 551.6903l13.624634 -7.0l-3.2492676 8.0z" fill-rule="evenodd"/></g></svg>